<?xml version="1.0" encoding="utf-8"?>
<!-- Generator: Adobe Illustrator 23.0.1, SVG Export Plug-In . SVG Version: 6.00 Build 0)  -->
<svg version="1.1" id="Layer_1" opacity="0.8" xmlns="http://www.w3.org/2000/svg" xmlns:xlink="http://www.w3.org/1999/xlink"
	 x="0px" y="0px" viewBox="0 0 637.74 637.82" style="enable-background:new 0 0 637.74 637.82;" xml:space="preserve">
<style type="text/css">
	.st0{display:none;opacity:0.02;}
	.st1{display:inline;fill:none;stroke:#000000;stroke-width:5;stroke-linecap:round;stroke-linejoin:round;stroke-miterlimit:10;}
	.st2{opacity:0.02;}
	.st3{fill:none;stroke:#000000;stroke-width:5;stroke-linecap:round;stroke-linejoin:round;stroke-miterlimit:10;}
	.st4{opacity:0.02;fill:none;stroke:#000000;stroke-width:5;stroke-linecap:round;stroke-linejoin:round;stroke-miterlimit:10;}
</style>
<g class="st0">
	<line class="st1" x1="221.24" y1="127.51" x2="203.96" y2="111.08"/>
	<line class="st1" x1="204.5" y1="128.06" x2="220.7" y2="110.54"/>
</g>
<g class="st2">
	<line class="st3" x1="241.09" y1="379.62" x2="223.81" y2="363.18"/>
	<line class="st3" x1="224.35" y1="380.16" x2="240.55" y2="362.64"/>
</g>
<g class="st2">
	<line class="st3" x1="30.86" y1="520.47" x2="13.59" y2="504.03"/>
	<line class="st3" x1="14.12" y1="521.02" x2="30.33" y2="503.49"/>
</g>
<g class="st2">
	<line class="st3" x1="23.32" y1="103.53" x2="6.04" y2="87.1"/>
	<line class="st3" x1="6.58" y1="104.08" x2="22.78" y2="86.55"/>
</g>
<g class="st2">
	<line class="st3" x1="637.74" y1="127.08" x2="620.46" y2="110.65"/>
	<line class="st3" x1="621" y1="127.63" x2="637.2" y2="110.11"/>
</g>
<g class="st2">
	<line class="st3" x1="433.92" y1="216.47" x2="416.64" y2="200.04"/>
	<line class="st3" x1="417.18" y1="217.02" x2="433.38" y2="199.5"/>
</g>
<g class="st2">
	<line class="st3" x1="518.15" y1="411.56" x2="500.88" y2="395.13"/>
	<line class="st3" x1="501.41" y1="412.11" x2="517.61" y2="394.59"/>
</g>
<g class="st2">
	<line class="st3" x1="504.73" y1="570.49" x2="487.46" y2="554.05"/>
	<line class="st3" x1="487.99" y1="571.03" x2="504.2" y2="553.51"/>
</g>
<polygon class="st4" points="349.62,153.82 337.73,132.95 325.87,153.83 314,174.71 337.76,174.69 361.52,174.68 "/>
<polygon class="st4" points="310.3,408.87 298.4,388 286.54,408.88 274.67,429.76 298.43,429.74 322.19,429.73 "/>
<polygon class="st4" points="446.62,487.19 434.72,466.33 422.86,487.2 410.99,508.08 434.75,508.06 458.51,508.05 "/>
<polygon class="st4" points="525.02,327 531.16,303.72 508.22,309.98 485.27,316.23 502.08,333.25 518.89,350.29 "/>
<polygon class="st4" points="134.31,56.69 140.45,33.4 117.51,39.66 94.55,45.91 111.37,62.93 128.18,79.97 "/>
<polygon class="st4" points="118.04,559.79 124.18,536.5 101.24,542.76 78.28,549.02 95.1,566.04 111.91,583.07 "/>
<polygon class="st4" points="549.09,82.7 569.67,70.63 549.08,58.6 528.49,46.57 528.51,70.66 528.52,94.76 "/>
<polygon class="st4" points="117.51,323.44 138.09,311.38 117.5,299.35 96.91,287.31 96.94,311.41 96.95,335.51 "/>
<path class="st4" d="M389.78,283.99c0,10.1-8.07,18.28-18.02,18.28c-9.96,0-18.03-8.18-18.03-18.28c0-10.1,8.07-18.28,18.03-18.28
	C381.7,265.71,389.78,273.89,389.78,283.99z"/>
<path class="st4" d="M298.7,79.97c0,10.1-8.07,18.28-18.03,18.28c-9.95,0-18.03-8.18-18.03-18.28c0-10.1,8.07-18.28,18.03-18.28
	C290.63,61.69,298.7,69.87,298.7,79.97z"/>
<path class="st4" d="M310.2,619.54c0,10.1-8.07,18.28-18.03,18.28s-18.03-8.19-18.03-18.28c0-10.1,8.07-18.28,18.03-18.28
	S310.2,609.44,310.2,619.54z"/>
<path class="st4" d="M358.41,592.21c0-10.1,8.07-18.28,18.03-18.28c9.96,0,18.03,8.18,18.03,18.28"/>
<path class="st4" d="M214.54,311.41c0-10.1,8.07-18.28,18.03-18.28c9.95,0,18.03,8.18,18.03,18.28"/>
<path class="st4" d="M24.9,162.97c0-10.1,8.04-18.28,17.94-18.28c9.91,0,17.94,8.18,17.94,18.28"/>
<path class="st4" d="M479.26,192.91c-9.96,0-18.03-8.15-18.03-18.2c0-10.05,8.07-18.2,18.03-18.2"/>
<path class="st4" d="M45.22,619.45c-9.96,0-18.03-8.15-18.03-18.2c0-10.05,8.07-18.2,18.03-18.2"/>
<path class="st4" d="M238.65,38.02c-9.96,0-18.03-8.15-18.03-18.2c0-10.05,8.07-18.2,18.03-18.2"/>
<path class="st4" d="M54.24,427.16c0,10.1-8.07,18.28-18.03,18.28s-18.03-8.19-18.03-18.28c0-10.1,8.07-18.28,18.03-18.28
	S54.24,417.07,54.24,427.16z"/>
<path class="st4" d="M610.09,448.04c0,10.1-8.07,18.28-18.02,18.28c-9.96,0-18.03-8.19-18.03-18.28c0-10.1,8.07-18.28,18.03-18.28
	C602.02,429.76,610.09,437.95,610.09,448.04z"/>
<rect x="560.23" y="156.53" class="st4" width="35.86" height="36.37"/>
<rect x="154.84" y="174.71" class="st4" width="35.85" height="36.37"/>
<rect x="153.04" y="406.88" class="st4" width="35.85" height="36.37"/>
<rect x="560.23" y="583.07" class="st4" width="35.85" height="36.37"/>
<rect x="411.5" y="1.63" class="st4" width="35.85" height="36.37"/>
<g class="st2">
	<path class="st3" d="M359.97,371.4c-7.83,0-6.48-14.08-16.47-14.08"/>
	<path class="st3" d="M392.91,371.4c-7.83,0-6.48-14.08-16.46-14.08"/>
	<path class="st3" d="M359.97,371.4c7.83,0,6.48-14.08,16.47-14.08"/>
	<path class="st3" d="M409.37,357.33"/>
	<path class="st3" d="M392.91,371.4c7.83,0,6.48-14.08,16.46-14.08"/>
</g>
<g class="st2">
	<path class="st3" d="M453.79,633.62c-7.83,0-6.48-14.08-16.47-14.08"/>
	<path class="st3" d="M486.72,633.62c-7.83,0-6.48-14.08-16.46-14.08"/>
	<path class="st3" d="M453.79,633.62c7.83,0,6.48-14.08,16.47-14.08"/>
	<path class="st3" d="M503.18,619.54"/>
	<path class="st3" d="M486.72,633.62c7.83,0,6.48-14.08,16.46-14.08"/>
</g>
<g class="st2">
	<path class="st3" d="M498.69,255.59c-7.83,0-6.48-14.08-16.46-14.08"/>
	<path class="st3" d="M531.62,255.59c-7.83,0-6.48-14.08-16.46-14.08"/>
	<path class="st3" d="M498.69,255.59c7.83,0,6.48-14.08,16.47-14.08"/>
	<path class="st3" d="M548.09,241.51"/>
	<path class="st3" d="M531.62,255.59c7.83,0,6.48-14.08,16.47-14.08"/>
</g>
<g class="st2">
	<path class="st3" d="M40.75,238.58c-7.83,0-6.48-14.08-16.47-14.08"/>
	<path class="st3" d="M73.68,238.58c-7.83,0-6.48-14.08-16.46-14.08"/>
	<path class="st3" d="M40.75,238.58c7.83,0,6.48-14.08,16.47-14.08"/>
	<path class="st3" d="M90.14,224.5"/>
	<path class="st3" d="M73.68,238.58c7.83,0,6.48-14.08,16.47-14.08"/>
</g>
<g class="st2">
	<path class="st3" d="M362.7,50.1c0,7.94-13.88,6.57-13.88,16.7"/>
	<path class="st3" d="M362.7,16.7c0,7.94-13.88,6.57-13.88,16.7"/>
	<path class="st3" d="M362.7,50.1c0-7.94-13.88-6.57-13.88-16.7"/>
	<path class="st3" d="M348.82,0"/>
	<path class="st3" d="M362.7,16.7c0-7.94-13.88-6.57-13.88-16.7"/>
</g>
<g class="st2">
	<path class="st3" d="M261.73,224.81c0,7.94-13.88,6.57-13.88,16.7"/>
	<path class="st3" d="M261.73,191.41c0,7.94-13.88,6.57-13.88,16.7"/>
	<path class="st3" d="M261.73,224.81c0-7.94-13.88-6.57-13.88-16.7"/>
	<path class="st3" d="M247.85,174.71"/>
	<path class="st3" d="M261.73,191.41c0-7.94-13.88-6.57-13.88-16.7"/>
</g>
<g class="st2">
	<path class="st3" d="M535.43,503.9c0,7.94-13.88,6.57-13.88,16.7"/>
	<path class="st3" d="M535.43,470.5c0,7.94-13.88,6.57-13.88,16.7"/>
	<path class="st3" d="M535.43,503.9c0-7.94-13.88-6.57-13.88-16.7"/>
	<path class="st3" d="M521.55,453.8"/>
	<path class="st3" d="M535.43,470.5c0-7.94-13.88-6.57-13.88-16.7"/>
</g>
<g class="st2">
	<path class="st3" d="M195.83,530.22c0,7.94-13.88,6.57-13.88,16.7"/>
	<path class="st3" d="M195.83,496.82c0,7.94-13.88,6.57-13.88,16.7"/>
	<path class="st3" d="M195.83,530.22c0-7.94-13.88-6.57-13.88-16.7"/>
	<path class="st3" d="M181.95,480.12"/>
	<path class="st3" d="M195.83,496.82c0-7.94-13.88-6.57-13.88-16.7"/>
</g>
<line class="st4" x1="399.43" y1="408.88" x2="440.06" y2="408.88"/>
<line class="st4" x1="0" y1="289.8" x2="40.63" y2="289.8"/>
<line class="st4" x1="402.47" y1="98.25" x2="443.1" y2="98.25"/>
<line class="st4" x1="562.63" y1="5.25" x2="603.26" y2="5.25"/>
<line class="st4" x1="161.98" y1="619.45" x2="202.61" y2="619.45"/>
<line class="st4" x1="266.31" y1="539.84" x2="295.04" y2="510.7"/>
<line class="st4" x1="28.48" y1="34.39" x2="57.21" y2="5.25"/>
<line class="st4" x1="582.94" y1="333.11" x2="611.67" y2="303.97"/>
<path class="st4" d="M369.93,506.45c-3.32,2.12-7.7,1.11-9.79-2.26c-2.09-3.37-1.09-7.81,2.23-9.93c3.31-2.11,7.7-1.1,9.79,2.26
	C374.24,499.88,373.24,504.33,369.93,506.45z"/>
<path class="st4" d="M313.99,308.36c-3.32,2.12-7.7,1.11-9.79-2.26c-2.09-3.37-1.09-7.81,2.23-9.93c3.32-2.11,7.7-1.1,9.79,2.26
	C318.3,301.8,317.3,306.25,313.99,308.36z"/>
<path class="st4" d="M58.11,369.28c-3.32,2.12-7.7,1.11-9.79-2.26c-2.09-3.37-1.09-7.81,2.23-9.93c3.32-2.11,7.7-1.1,9.79,2.26
	C62.42,362.71,61.42,367.16,58.11,369.28z"/>
<path class="st4" d="M130.86,142.62c-3.32,2.12-7.7,1.11-9.79-2.26c-2.09-3.37-1.09-7.81,2.23-9.93c3.32-2.11,7.7-1.1,9.79,2.26
	C135.17,136.06,134.17,140.51,130.86,142.62z"/>
<path class="st4" d="M521.4,139.04c-3.32,2.12-7.7,1.11-9.79-2.26c-2.09-3.37-1.09-7.81,2.23-9.93c3.32-2.11,7.7-1.1,9.79,2.26
	C525.71,132.48,524.71,136.93,521.4,139.04z"/>
<path class="st4" d="M621.7,395.6c-3.32,2.12-7.7,1.11-9.79-2.26c-2.09-3.37-1.09-7.81,2.23-9.93c3.32-2.11,7.7-1.1,9.79,2.26
	C626.01,389.03,625.01,393.48,621.7,395.6z"/>
</svg>
